<svg xmlns="http://www.w3.org/2000/svg" viewBox="0 0 21.96 42.83"><defs><style>.a{fill:#d0ebed;}</style></defs><title>taniko</title><path class="a" d="M18.43,41.79,21.92,37V35.35l-4.73,6.44h-2l6.76-9.2v-.14l-.05,0h.05v-1H14.1L7.21,22h14.2l.51.68v-2H18.39L21.92,16V14.26l-4.78,6.49h-2l6.81-9.26v-.05l-.09-.06h.09v-1H14.06L7.17,1h14.2l.55.74V0H0V1.84l6.27,8.54H0v1.26l.13-.18L0,11.38H2.23L0,14.41V16.1l3.41-4.64-.12-.08h14.2L10.6,20.75H0v2.07l6.31,8.59H0v1.33l.18-.24-.12-.09H2.27L0,35.5v1.69L3.45,32.5l-.11-.09H17.53l-6.89,9.38H0v1H11l.12.08.06-.08h3.1l.11.08.06-.08h3.1l.11.08.06-.08h4.23v-1ZM7.51,10.38.62,1h2l6.89,9.38Zm3.27,0L3.89,1h2l6.89,9.38Zm7.89,1.08-.12-.08h2.21l-6.89,9.37h-2Zm-11.11,20L.67,22h2l6.89,9.37Zm3.27,0L3.94,22H6l6.89,9.37Zm3.09,10.38h-2l6.83-9.29-.11-.09h2.21Z"/></svg>