<svg id="avatarFace" xmlns="http://www.w3.org/2000/svg" xmlns:xlink="http://www.w3.org/1999/xlink" viewBox="0 0 200 253.9"><defs><style>.a{fill:none;}.b{clip-path:url(#a);}.c{fill:#464243;}.d{fill:#454142;}.e{fill:#444041;}.f{fill:#433f40;}.g{fill:#423e3f;}.h{fill:#413d3e;}.i{fill:#403c3d;}.j{fill:#3f3b3c;}.k{fill:#3e3a3b;}.l{fill:#3d393a;}.m{fill:#3c3839;}.n{fill:#3b3738;}.o{fill:#3a3737;}.p{fill:#393636;}.q{fill:#383535;}.r{fill:#373434;}.s{fill:#363333;}.t{fill:#353232;}.u{fill:#343132;}.v{fill:#333031;}.w{fill:#322f30;}.x{fill:#312e2f;}.y{fill:#302d2e;}.z{fill:#2f2c2d;}.aa{fill:#2e2b2c;}.ab{fill:#2d2a2b;}.ac{fill:#2c292a;}.ad{fill:#2b2829;}.ae{fill:#2a2728;}.af{fill:#292627;}.ag{fill:#282526;}.ah{fill:#272425;}.ai{fill:#262324;}.aj{fill:#252223;}.ak{fill:#242122;}.al{fill:#222121;}.am{fill:#212020;}.an{fill:#201f1f;}.ao{fill:#1f1e1e;}.ap{fill:#1e1d1d;}.aq{fill:#1d1c1c;}.ar{fill:#1c1b1b;}.as{fill:#1b1a1a;}.at{fill:#1a1919;}.au{fill:#191818;}.av{fill:#181717;}.aw{fill:#171616;}.ax{fill:#161515;}.ay{fill:#151414;}.az{fill:#141313;}.ba{fill:#131212;}.bb{fill:#121111;}.bc{fill:#111011;}.bd{fill:#100f10;}.be{fill:#0f0e0f;}.bf{fill:#0e0d0e;}.bg{fill:#0d0c0d;}.bh{fill:#0c0b0c;}.bi{fill:#0b0b0b;}.bj{fill:#0a0a0a;}.bk{fill:#090909;}.bl{fill:#080808;}.bm{fill:#070707;}.bn{fill:#060606;}.bo{fill:#050505;}.bp{fill:#040404;}.bq{fill:#030303;}.br{fill:#020202;}.bs{fill:#010101;}.bt{clip-path:url(#b);}.bu{clip-path:url(#c);}</style><clipPath id="a"><path class="a" d="M61,163h0a5,5,0,0,1-5-5V128.3a5,5,0,0,1,5-5h0a5,5,0,0,1,5,5V158A5.08,5.08,0,0,1,61,163Z"/></clipPath><clipPath id="b"><path class="a" d="M105,163h0a5,5,0,0,1-5-5V128.3a5.08,5.08,0,0,1,5-5h0a5.08,5.08,0,0,1,5,5V158A5.08,5.08,0,0,1,105,163Z"/></clipPath><clipPath id="c"><path class="a" d="M83.1,188.2A14.19,14.19,0,0,1,68.9,174v0a2,2,0,0,1,4,0,10.2,10.2,0,0,0,20.4,0,2,2,0,0,1,4,0A14.25,14.25,0,0,1,83.1,188.2Z"/></clipPath></defs><title>face</title><g class="b"><polygon class="c" points="58.2 123.3 56 125.44 56 123.3 58.2 123.3"/><polygon class="c" points="58.44 123.3 56 125.67 56 125.44 58.2 123.3 58.44 123.3"/><polygon class="d" points="58.68 123.3 56 125.91 56 125.67 58.44 123.3 58.68 123.3"/><polygon class="e" points="58.93 123.3 56 126.14 56 125.91 58.68 123.3 58.93 123.3"/><polygon class="f" points="59.17 123.3 56 126.38 56 126.14 58.93 123.3 59.17 123.3"/><polygon class="g" points="59.41 123.3 56 126.61 56 126.38 59.17 123.3 59.41 123.3"/><polygon class="h" points="59.65 123.3 56 126.85 56 126.61 59.41 123.3 59.65 123.3"/><polygon class="i" points="59.89 123.3 56 127.08 56 126.85 59.65 123.3 59.89 123.3"/><polygon class="j" points="60.13 123.3 56 127.32 56 127.08 59.89 123.3 60.13 123.3"/><polygon class="k" points="60.38 123.3 56 127.56 56 127.32 60.13 123.3 60.38 123.3"/><polygon class="l" points="60.62 123.3 56 127.79 56 127.56 60.38 123.3 60.62 123.3"/><polygon class="m" points="60.86 123.3 56 128.03 56 127.79 60.62 123.3 60.86 123.3"/><polygon class="n" points="61.1 123.3 56 128.26 56 128.03 60.86 123.3 61.1 123.3"/><polygon class="o" points="61.34 123.3 56 128.5 56 128.26 61.1 123.3 61.34 123.3"/><polygon class="p" points="61.59 123.3 56 128.73 56 128.5 61.34 123.3 61.59 123.3"/><polygon class="q" points="61.83 123.3 56 128.97 56 128.73 61.59 123.3 61.83 123.3"/><polygon class="r" points="62.07 123.3 56 129.2 56 128.97 61.83 123.3 62.07 123.3"/><polygon class="s" points="62.31 123.3 56 129.44 56 129.2 62.07 123.3 62.31 123.3"/><polygon class="t" points="62.55 123.3 56 129.67 56 129.44 62.31 123.3 62.55 123.3"/><polygon class="u" points="62.8 123.3 56 129.91 56 129.67 62.55 123.3 62.8 123.3"/><polygon class="v" points="63.04 123.3 56 130.14 56 129.91 62.8 123.3 63.04 123.3"/><polygon class="w" points="63.28 123.3 56 130.38 56 130.14 63.04 123.3 63.28 123.3"/><polygon class="x" points="63.52 123.3 56 130.61 56 130.38 63.28 123.3 63.52 123.3"/><polygon class="y" points="63.76 123.3 56 130.85 56 130.61 63.52 123.3 63.76 123.3"/><polygon class="z" points="64 123.3 56 131.08 56 130.85 63.76 123.3 64 123.3"/><polygon class="aa" points="64.25 123.3 56 131.32 56 131.08 64 123.3 64.25 123.3"/><polygon class="ab" points="64.49 123.3 56 131.55 56 131.32 64.25 123.3 64.49 123.3"/><polygon class="ac" points="64.73 123.3 56 131.79 56 131.55 64.49 123.3 64.73 123.3"/><polygon class="ad" points="64.97 123.3 56 132.02 56 131.79 64.73 123.3 64.97 123.3"/><polygon class="ae" points="65.21 123.3 56 132.26 56 132.02 64.97 123.3 65.21 123.3"/><polygon class="af" points="65.45 123.3 56 132.49 56 132.26 65.21 123.3 65.45 123.3"/><polygon class="ag" points="65.7 123.3 56 132.73 56 132.49 65.45 123.3 65.7 123.3"/><polygon class="ah" points="65.94 123.3 56 132.96 56 132.73 65.7 123.3 65.94 123.3"/><polygon class="ai" points="66 123.47 56 133.2 56 132.96 65.94 123.3 66 123.3 66 123.47"/><polygon class="aj" points="66 123.71 56 133.43 56 133.2 66 123.47 66 123.71"/><polygon class="ak" points="66 123.95 56 133.67 56 133.43 66 123.71 66 123.95"/><polygon class="al" points="66 124.18 56 133.9 56 133.67 66 123.95 66 124.18"/><polygon class="am" points="66 124.42 56 134.14 56 133.9 66 124.18 66 124.42"/><polygon class="an" points="66 124.65 56 134.37 56 134.14 66 124.42 66 124.65"/><polygon class="ao" points="66 124.89 56 134.61 56 134.37 66 124.65 66 124.89"/><polygon class="ap" points="66 125.12 56 134.84 56 134.61 66 124.89 66 125.12"/><polygon class="aq" points="66 125.36 56 135.08 56 134.84 66 125.12 66 125.36"/><polygon class="ar" points="66 125.59 56 135.31 56 135.08 66 125.36 66 125.59"/><polygon class="as" points="66 125.83 56 135.55 56 135.31 66 125.59 66 125.83"/><polygon class="at" points="66 126.06 56 135.78 56 135.55 66 125.83 66 126.06"/><polygon class="au" points="66 126.3 56 136.02 56 135.78 66 126.06 66 126.3"/><polygon class="av" points="66 126.53 56 136.25 56 136.02 66 126.3 66 126.53"/><polygon class="aw" points="66 126.77 56 136.49 56 136.25 66 126.53 66 126.77"/><polygon class="ax" points="66 127 56 136.72 56 136.49 66 126.77 66 127"/><polygon class="ay" points="66 127.24 56 136.96 56 136.72 66 127 66 127.24"/><polygon class="az" points="66 127.47 56 137.19 56 136.96 66 127.24 66 127.47"/><polygon class="ba" points="66 127.71 56 137.43 56 137.19 66 127.47 66 127.71"/><polygon class="bb" points="66 127.94 56 137.66 56 137.43 66 127.71 66 127.94"/><polygon class="bc" points="66 128.18 56 137.9 56 137.66 66 127.94 66 128.18"/><polygon class="bd" points="66 128.41 56 138.13 56 137.9 66 128.18 66 128.41"/><polygon class="be" points="66 128.65 56 138.37 56 138.13 66 128.41 66 128.65"/><polygon class="bf" points="66 128.88 56 138.6 56 138.37 66 128.65 66 128.88"/><polygon class="bg" points="66 129.12 56 138.84 56 138.6 66 128.88 66 129.12"/><polygon class="bh" points="66 129.35 56 139.07 56 138.84 66 129.12 66 129.35"/><polygon class="bi" points="66 129.59 56 139.31 56 139.07 66 129.35 66 129.59"/><polygon class="bj" points="66 129.82 56 139.54 56 139.31 66 129.59 66 129.82"/><polygon class="bk" points="66 130.06 56 139.78 56 139.54 66 129.82 66 130.06"/><polygon class="bl" points="66 130.29 56 140.01 56 139.78 66 130.06 66 130.29"/><polygon class="bm" points="66 130.53 56 140.25 56 140.01 66 130.29 66 130.53"/><polygon class="bn" points="66 130.76 56 140.49 56 140.25 66 130.53 66 130.76"/><polygon class="bo" points="66 131 56 140.72 56 140.49 66 130.76 66 131"/><polygon class="bp" points="66 131.23 56 140.96 56 140.72 66 131 66 131.23"/><polygon class="bq" points="66 131.47 56 141.19 56 140.96 66 131.23 66 131.47"/><polygon class="br" points="66 131.7 56 141.43 56 141.19 66 131.47 66 131.7"/><polygon class="bs" points="66 131.94 56 141.66 56 141.43 66 131.7 66 131.94"/><polygon points="66 132.17 56 141.9 56 141.66 66 131.94 66 132.17"/><polygon points="56 141.9 66 132.17 66 163 56 163 56 141.9"/></g><g class="bt"><polygon class="c" points="102.21 123.3 100 125.45 100 123.3 102.21 123.3"/><polygon class="c" points="102.45 123.3 100 125.69 100 125.45 102.21 123.3 102.45 123.3"/><polygon class="d" points="102.69 123.3 100 125.92 100 125.69 102.45 123.3 102.69 123.3"/><polygon class="e" points="102.94 123.3 100 126.16 100 125.92 102.69 123.3 102.94 123.3"/><polygon class="f" points="103.18 123.3 100 126.39 100 126.16 102.94 123.3 103.18 123.3"/><polygon class="g" points="103.42 123.3 100 126.63 100 126.39 103.18 123.3 103.42 123.3"/><polygon class="h" points="103.66 123.3 100 126.86 100 126.63 103.42 123.3 103.66 123.3"/><polygon class="i" points="103.9 123.3 100 127.09 100 126.86 103.66 123.3 103.9 123.3"/><polygon class="j" points="104.14 123.3 100 127.33 100 127.09 103.9 123.3 104.14 123.3"/><polygon class="k" points="104.39 123.3 100 127.56 100 127.33 104.14 123.3 104.39 123.3"/><polygon class="l" points="104.63 123.3 100 127.8 100 127.56 104.39 123.3 104.63 123.3"/><polygon class="m" points="104.87 123.3 100 128.04 100 127.8 104.63 123.3 104.87 123.3"/><polygon class="n" points="105.11 123.3 100 128.27 100 128.04 104.87 123.3 105.11 123.3"/><polygon class="o" points="105.36 123.3 100 128.51 100 128.27 105.11 123.3 105.36 123.3"/><polygon class="p" points="105.6 123.3 100 128.74 100 128.51 105.36 123.3 105.6 123.3"/><polygon class="q" points="105.84 123.3 100 128.98 100 128.74 105.6 123.3 105.84 123.3"/><polygon class="r" points="106.08 123.3 100 129.21 100 128.98 105.84 123.3 106.08 123.3"/><polygon class="s" points="106.32 123.3 100 129.45 100 129.21 106.08 123.3 106.32 123.3"/><polygon class="t" points="106.56 123.3 100 129.68 100 129.45 106.32 123.3 106.56 123.3"/><polygon class="u" points="106.81 123.3 100 129.92 100 129.68 106.56 123.3 106.81 123.3"/><polygon class="v" points="107.05 123.3 100 130.15 100 129.92 106.81 123.3 107.05 123.3"/><polygon class="w" points="107.29 123.3 100 130.39 100 130.15 107.05 123.3 107.29 123.3"/><polygon class="x" points="107.53 123.3 100 130.62 100 130.39 107.29 123.3 107.53 123.3"/><polygon class="y" points="107.77 123.3 100 130.86 100 130.62 107.53 123.3 107.77 123.3"/><polygon class="z" points="108.01 123.3 100 131.09 100 130.86 107.77 123.3 108.01 123.3"/><polygon class="aa" points="108.26 123.3 100 131.33 100 131.09 108.01 123.3 108.26 123.3"/><polygon class="ab" points="108.5 123.3 100 131.56 100 131.33 108.26 123.3 108.5 123.3"/><polygon class="ac" points="108.74 123.3 100 131.8 100 131.56 108.5 123.3 108.74 123.3"/><polygon class="ad" points="108.98 123.3 100 132.03 100 131.8 108.74 123.3 108.98 123.3"/><polygon class="ae" points="109.22 123.3 100 132.27 100 132.03 108.98 123.3 109.22 123.3"/><polygon class="af" points="109.47 123.3 100 132.5 100 132.27 109.22 123.3 109.47 123.3"/><polygon class="ag" points="109.71 123.3 100 132.74 100 132.5 109.47 123.3 109.71 123.3"/><polygon class="ah" points="109.95 123.3 100 132.97 100 132.74 109.71 123.3 109.95 123.3"/><polygon class="ai" points="110 123.48 100 133.21 100 132.97 109.95 123.3 110 123.3 110 123.48"/><polygon class="aj" points="110 123.72 100 133.44 100 133.21 110 123.48 110 123.72"/><polygon class="ak" points="110 123.96 100 133.68 100 133.44 110 123.72 110 123.96"/><polygon class="al" points="110 124.19 100 133.91 100 133.68 110 123.96 110 124.19"/><polygon class="am" points="110 124.43 100 134.15 100 133.91 110 124.19 110 124.43"/><polygon class="an" points="110 124.66 100 134.38 100 134.15 110 124.43 110 124.66"/><polygon class="ao" points="110 124.9 100 134.62 100 134.38 110 124.66 110 124.9"/><polygon class="ap" points="110 125.13 100 134.85 100 134.62 110 124.9 110 125.13"/><polygon class="aq" points="110 125.37 100 135.09 100 134.85 110 125.13 110 125.37"/><polygon class="ar" points="110 125.6 100 135.32 100 135.09 110 125.37 110 125.6"/><polygon class="as" points="110 125.84 100 135.56 100 135.32 110 125.6 110 125.84"/><polygon class="at" points="110 126.07 100 135.79 100 135.56 110 125.84 110 126.07"/><polygon class="au" points="110 126.31 100 136.03 100 135.79 110 126.07 110 126.31"/><polygon class="av" points="110 126.54 100 136.26 100 136.03 110 126.31 110 126.54"/><polygon class="aw" points="110 126.78 100 136.5 100 136.26 110 126.54 110 126.78"/><polygon class="ax" points="110 127.01 100 136.73 100 136.5 110 126.78 110 127.01"/><polygon class="ay" points="110 127.25 100 136.97 100 136.73 110 127.01 110 127.25"/><polygon class="az" points="110 127.48 100 137.2 100 136.97 110 127.25 110 127.48"/><polygon class="ba" points="110 127.72 100 137.44 100 137.2 110 127.48 110 127.72"/><polygon class="bb" points="110 127.95 100 137.67 100 137.44 110 127.72 110 127.95"/><polygon class="bc" points="110 128.19 100 137.91 100 137.67 110 127.95 110 128.19"/><polygon class="bd" points="110 128.42 100 138.15 100 137.91 110 128.19 110 128.42"/><polygon class="be" points="110 128.66 100 138.38 100 138.15 110 128.42 110 128.66"/><polygon class="bf" points="110 128.89 100 138.62 100 138.38 110 128.66 110 128.89"/><polygon class="bg" points="110 129.13 100 138.85 100 138.62 110 128.89 110 129.13"/><polygon class="bh" points="110 129.36 100 139.09 100 138.85 110 129.13 110 129.36"/><polygon class="bi" points="110 129.6 100 139.32 100 139.09 110 129.36 110 129.6"/><polygon class="bj" points="110 129.83 100 139.56 100 139.32 110 129.6 110 129.83"/><polygon class="bk" points="110 130.07 100 139.79 100 139.56 110 129.83 110 130.07"/><polygon class="bl" points="110 130.3 100 140.03 100 139.79 110 130.07 110 130.3"/><polygon class="bm" points="110 130.54 100 140.26 100 140.03 110 130.3 110 130.54"/><polygon class="bn" points="110 130.77 100 140.5 100 140.26 110 130.54 110 130.77"/><polygon class="bo" points="110 131.01 100 140.73 100 140.5 110 130.77 110 131.01"/><polygon class="bp" points="110 131.24 100 140.97 100 140.73 110 131.01 110 131.24"/><polygon class="bq" points="110 131.48 100 141.2 100 140.97 110 131.24 110 131.48"/><polygon class="br" points="110 131.71 100 141.44 100 141.2 110 131.48 110 131.71"/><polygon class="bs" points="110 131.95 100 141.67 100 141.44 110 131.71 110 131.95"/><polygon points="110 132.18 100 141.91 100 141.67 110 131.95 110 132.18"/><polygon points="100 141.91 110 132.18 110 163 100 163 100 141.91"/></g><g class="bu"><polygon class="c" points="78.31 172 68.9 176.13 68.9 172 78.31 172"/><polygon class="c" points="78.68 172 68.9 176.29 68.9 176.13 78.31 172 78.68 172"/><polygon class="d" points="79.06 172 68.9 176.46 68.9 176.29 78.68 172 79.06 172"/><polygon class="e" points="79.43 172 68.9 176.62 68.9 176.46 79.06 172 79.43 172"/><polygon class="f" points="79.8 172 68.9 176.79 68.9 176.62 79.43 172 79.8 172"/><polygon class="g" points="80.18 172 68.9 176.95 68.9 176.79 79.8 172 80.18 172"/><polygon class="h" points="80.55 172 68.9 177.12 68.9 176.95 80.18 172 80.55 172"/><polygon class="i" points="80.92 172 68.9 177.28 68.9 177.12 80.55 172 80.92 172"/><polygon class="j" points="81.3 172 68.9 177.44 68.9 177.28 80.92 172 81.3 172"/><polygon class="k" points="81.67 172 68.9 177.61 68.9 177.44 81.3 172 81.67 172"/><polygon class="l" points="82.05 172 68.9 177.77 68.9 177.61 81.67 172 82.05 172"/><polygon class="m" points="82.42 172 68.9 177.94 68.9 177.77 82.05 172 82.42 172"/><polygon class="n" points="82.79 172 68.9 178.1 68.9 177.94 82.42 172 82.79 172"/><polygon class="o" points="83.17 172 68.9 178.26 68.9 178.1 82.79 172 83.17 172"/><polygon class="p" points="83.54 172 68.9 178.43 68.9 178.26 83.17 172 83.54 172"/><polygon class="q" points="83.92 172 68.9 178.59 68.9 178.43 83.54 172 83.92 172"/><polygon class="r" points="84.29 172 68.9 178.76 68.9 178.59 83.92 172 84.29 172"/><polygon class="s" points="84.66 172 68.9 178.92 68.9 178.76 84.29 172 84.66 172"/><polygon class="t" points="85.04 172 68.9 179.09 68.9 178.92 84.66 172 85.04 172"/><polygon class="u" points="85.41 172 68.9 179.25 68.9 179.09 85.04 172 85.41 172"/><polygon class="v" points="85.79 172 68.9 179.41 68.9 179.25 85.41 172 85.79 172"/><polygon class="w" points="86.16 172 68.9 179.58 68.9 179.41 85.79 172 86.16 172"/><polygon class="x" points="86.53 172 68.9 179.74 68.9 179.58 86.16 172 86.53 172"/><polygon class="y" points="86.91 172 68.9 179.91 68.9 179.74 86.53 172 86.91 172"/><polygon class="z" points="87.28 172 68.9 180.07 68.9 179.91 86.91 172 87.28 172"/><polygon class="aa" points="87.66 172 68.9 180.23 68.9 180.07 87.28 172 87.66 172"/><polygon class="ab" points="88.03 172 68.9 180.4 68.9 180.23 87.66 172 88.03 172"/><polygon class="ac" points="88.4 172 68.9 180.56 68.9 180.4 88.03 172 88.4 172"/><polygon class="ad" points="88.78 172 68.9 180.73 68.9 180.56 88.4 172 88.78 172"/><polygon class="ae" points="89.15 172 68.9 180.89 68.9 180.73 88.78 172 89.15 172"/><polygon class="af" points="89.53 172 68.9 181.06 68.9 180.89 89.15 172 89.53 172"/><polygon class="ag" points="89.9 172 68.9 181.22 68.9 181.06 89.53 172 89.9 172"/><polygon class="ah" points="90.27 172 68.9 181.38 68.9 181.22 89.9 172 90.27 172"/><polygon class="ai" points="90.65 172 68.9 181.55 68.9 181.38 90.27 172 90.65 172"/><polygon class="aj" points="91.02 172 68.9 181.71 68.9 181.55 90.65 172 91.02 172"/><polygon class="ak" points="91.39 172 68.9 181.88 68.9 181.71 91.02 172 91.39 172"/><polygon class="al" points="91.77 172 68.9 182.04 68.9 181.88 91.39 172 91.77 172"/><polygon class="am" points="92.14 172 68.9 182.2 68.9 182.04 91.77 172 92.14 172"/><polygon class="an" points="92.52 172 68.9 182.37 68.9 182.2 92.14 172 92.52 172"/><polygon class="ao" points="92.89 172 68.9 182.53 68.9 182.37 92.52 172 92.89 172"/><polygon class="ap" points="93.27 172 68.9 182.7 68.9 182.53 92.89 172 93.27 172"/><polygon class="aq" points="93.64 172 68.9 182.86 68.9 182.7 93.27 172 93.64 172"/><polygon class="ar" points="94.01 172 68.9 183.03 68.9 182.86 93.64 172 94.01 172"/><polygon class="as" points="94.39 172 68.9 183.19 68.9 183.03 94.01 172 94.39 172"/><polygon class="at" points="94.76 172 68.9 183.35 68.9 183.19 94.39 172 94.76 172"/><polygon class="au" points="95.14 172 68.9 183.52 68.9 183.35 94.76 172 95.14 172"/><polygon class="av" points="95.51 172 68.9 183.68 68.9 183.52 95.14 172 95.51 172"/><polygon class="aw" points="95.88 172 68.9 183.85 68.9 183.68 95.51 172 95.88 172"/><polygon class="ax" points="96.26 172 68.9 184.01 68.9 183.85 95.88 172 96.26 172"/><polygon class="ay" points="96.63 172 68.9 184.17 68.9 184.01 96.26 172 96.63 172"/><polygon class="az" points="97 172 68.9 184.34 68.9 184.17 96.63 172 97 172"/><polygon class="ba" points="97.3 172.03 68.9 184.5 68.9 184.34 97 172 97.3 172 97.3 172.03"/><polygon class="bb" points="97.3 172.2 68.9 184.67 68.9 184.5 97.3 172.03 97.3 172.2"/><polygon class="bc" points="97.3 172.36 68.9 184.83 68.9 184.67 97.3 172.2 97.3 172.36"/><polygon class="bd" points="97.3 172.53 68.9 185 68.9 184.83 97.3 172.36 97.3 172.53"/><polygon class="be" points="97.3 172.69 68.9 185.16 68.9 185 97.3 172.53 97.3 172.69"/><polygon class="bf" points="97.3 172.85 68.9 185.32 68.9 185.16 97.3 172.69 97.3 172.85"/><polygon class="bg" points="97.3 173.02 68.9 185.49 68.9 185.32 97.3 172.85 97.3 173.02"/><polygon class="bh" points="97.3 173.18 68.9 185.65 68.9 185.49 97.3 173.02 97.3 173.18"/><polygon class="bi" points="97.3 173.35 68.9 185.82 68.9 185.65 97.3 173.18 97.3 173.35"/><polygon class="bj" points="97.3 173.51 68.9 185.98 68.9 185.82 97.3 173.35 97.3 173.51"/><polygon class="bk" points="97.3 173.68 68.9 186.14 68.9 185.98 97.3 173.51 97.3 173.68"/><polygon class="bl" points="97.3 173.84 68.9 186.31 68.9 186.14 97.3 173.68 97.3 173.84"/><polygon class="bm" points="97.3 174 68.9 186.47 68.9 186.31 97.3 173.84 97.3 174"/><polygon class="bn" points="97.3 174.17 68.9 186.64 68.9 186.47 97.3 174 97.3 174.17"/><polygon class="bo" points="97.3 174.33 68.9 186.8 68.9 186.64 97.3 174.17 97.3 174.33"/><polygon class="bp" points="97.3 174.5 68.95 186.94 68.9 186.82 68.9 186.8 97.3 174.33 97.3 174.5"/><polygon class="bq" points="97.3 174.66 69.01 187.08 68.95 186.94 97.3 174.5 97.3 174.66"/><polygon class="br" points="97.3 174.82 69.07 187.22 69.01 187.08 97.3 174.66 97.3 174.82"/><polygon class="bs" points="97.3 174.99 69.14 187.35 69.07 187.22 97.3 174.82 97.3 174.99"/><polygon points="97.3 175.15 69.19 187.49 69.14 187.35 97.3 174.99 97.3 175.15"/><polygon points="69.51 188.21 69.19 187.49 97.3 175.15 97.3 188.21 69.51 188.21"/></g></svg>