<svg class="hair" id="hair4" xmlns="http://www.w3.org/2000/svg" viewBox="0 0 200 253.9"><defs><style>.hair path{fill:pink;}</style></defs><title>hair 4</title><path d="M172.8,78.8a15.83,15.83,0,0,0-4.1-10.5,14.56,14.56,0,0,0,.9-5.2,15.66,15.66,0,0,0-15.7-15.7h-.3a15.6,15.6,0,0,0-21.1-11.7A15.6,15.6,0,0,0,109.7,32a15.5,15.5,0,0,0-12.3-6,15.78,15.78,0,0,0-13.8,8.2,15.45,15.45,0,0,0-12.7-6.5A15.76,15.76,0,0,0,55.5,40.3a15.75,15.75,0,0,0-21,14.8A15.66,15.66,0,0,0,18.8,70.8a15.47,15.47,0,0,0,7.8,13.5A15,15,0,0,0,25.1,91a15.61,15.61,0,0,0,9.5,14.4,16,16,0,0,0,6.2,1.3,15.72,15.72,0,0,0,13.6-7.9,15.58,15.58,0,0,0,8.1-5.4,15.62,15.62,0,0,0,20.7,1.8,15.62,15.62,0,0,0,22.7-1.7,15.63,15.63,0,0,0,11.3,4.8,15.35,15.35,0,0,0,9.2-3,15.67,15.67,0,0,0,11.8,5.4h.1a15.62,15.62,0,0,0,10.4,13.5v19.4s4.8,2.1,9,8.8a28.3,28.3,0,0,1,4,14.2s19.4-28.1,6.2-66.3A16.48,16.48,0,0,0,172.8,78.8Z"/></svg>