<svg class="hair" id="hair5" xmlns="http://www.w3.org/2000/svg" viewBox="0 0 200 253.9"><defs><style>.hair path{fill:pink;}</style></defs><title>hair 5</title><path d="M172.7,138.4a61.13,61.13,0,0,0,3.4-20.1v-9.9A62.29,62.29,0,0,0,114,46.3H91.9A62,62,0,0,0,38.6,76.7a18.53,18.53,0,0,0-8.8,15.8,16.93,16.93,0,0,0,.9,5.6,59.3,59.3,0,0,0-.9,10.3v9.9a50.54,50.54,0,0,0,.3,5.5,50.54,50.54,0,0,0-.3,5.5h0a13.34,13.34,0,0,0,.1,2h-.1a27.8,27.8,0,0,0,0,55.6c1,0,2-.1,3-.2a30.46,30.46,0,0,1-3-13.2h0A30,30,0,0,1,37,154a59.09,59.09,0,0,1-.5-7.4v-6.4c-.1-1.4-.2-2.9-.2-4.3,0-1.7.1-3.3.2-5a56.92,56.92,0,0,1,5-21.4,19.38,19.38,0,0,0,6.9,1.3,18.58,18.58,0,0,0,13.5-5.9,18.39,18.39,0,0,0,26,1c.35-.32.69-.66,1-1a18.39,18.39,0,0,0,26,1c.35-.32.69-.66,1-1a18.51,18.51,0,0,0,31.9-10.2A65.73,65.73,0,0,1,162,135.9c0,16.4,0,36.3-11.8,52.8a27.75,27.75,0,0,0,42.1-23.8A27.19,27.19,0,0,0,172.7,138.4Z"/></svg>