<svg class="hair" id="hair3" xmlns="http://www.w3.org/2000/svg" viewBox="0 0 200 253.9"><defs><style>.hair path{fill:pink;}</style></defs><title>hair 3</title><path d="M172.4,122c0-37.2-29.3-67.6-65-67.6H97.7c-35.8,0-65,30.4-65,67.6h0a69.84,69.84,0,0,0,3.9,23v-8.7A65.12,65.12,0,0,1,48.2,99.1a71.9,71.9,0,0,0,6.4,13.5c5.8,9.5,9.6,2,8-2.3-1.3-3.5-2.7-13.6-3.2-17.1.4,2,1.8,6.6,7.2,14.5,7.5,11.1,9.7.7,9.7.7l-1.6-4.2c-1.6-4.2-3.1-15.3-3.1-15.3S76,102,81.3,107.5s7.5,1.3,5.7-4.6-2.2-14.4-2.2-14.4A43.5,43.5,0,0,0,95.9,110c9.5,10.1,11.5-2.6,9.4-7.2S102.5,87,102.5,87s4.9,12.2,10.2,19.1,11,2.3,8.8-2.9-2.8-13.7-2.8-13.7l10.4,15.7c10.4,15.7,17.6,16.3,17.6,16.3v19s4.6,2,8.5,8.6a48.35,48.35,0,0,1,5.3,14.3,5.2,5.2,0,0,1,.3-.5v.1c8.2-11.2,11.6-25.8,11.6-41Z"/></svg>