<svg class="hair" id="hair2" xmlns="http://www.w3.org/2000/svg" viewBox="0 0 200 253.9"><defs><style>.hair path{fill:pink;}</style></defs><title>hair 2</title><path d="M101.8,60.2h0A70,70,0,0,0,32,129.9v32a29.27,29.27,0,0,1,4.8-7.7,60,60,0,0,1-.5-7.4v-6.4c-.1-1.4-.2-2.9-.2-4.3,0-1.7.1-3.3.2-5a57.38,57.38,0,0,1,8.9-28.6c-.6,1.1-.9,1.7-.9,1.7s28.5,3.4,45.1-8.7a45.81,45.81,0,0,0,6-5.2A46,46,0,0,0,111.6,105c17.7,9.8,39.4,9.6,46.8,9.2A67.79,67.79,0,0,1,162,136c0,16.6,0,36.7-12.1,53.3-6.5,9-17.5,14.3-32.2,14.3H59.8a30.33,30.33,0,0,1-27.2-17.1,70,70,0,0,0,69.2,61h0a70,70,0,0,0,69.8-69.7v-48C171.6,91.6,140.2,60.2,101.8,60.2Z"/></svg>